<svg width="222" height="33" viewBox="0 0 222 33" fill="none" xmlns="http://www.w3.org/2000/svg">
<path d="M12.376 26.384C10.648 26.384 9.03733 26.1067 7.544 25.552C6.072 24.976 4.792 24.1653 3.704 23.12C2.616 22.0747 1.76267 20.848 1.144 19.44C0.546667 18.032 0.248 16.4853 0.248 14.8C0.248 13.1147 0.546667 11.568 1.144 10.16C1.76267 8.752 2.616 7.52533 3.704 6.48C4.81333 5.43467 6.104 4.63467 7.576 4.08C9.048 3.504 10.6587 3.216 12.408 3.216C14.3493 3.216 16.0987 3.55733 17.656 4.24C19.2347 4.90133 20.5573 5.88267 21.624 7.184L18.296 10.256C17.528 9.38133 16.6747 8.73067 15.736 8.304C14.7973 7.856 13.7733 7.632 12.664 7.632C11.6187 7.632 10.6587 7.80267 9.784 8.144C8.90933 8.48533 8.152 8.976 7.512 9.616C6.872 10.256 6.37067 11.0133 6.008 11.888C5.66667 12.7627 5.496 13.7333 5.496 14.8C5.496 15.8667 5.66667 16.8373 6.008 17.712C6.37067 18.5867 6.872 19.344 7.512 19.984C8.152 20.624 8.90933 21.1147 9.784 21.456C10.6587 21.7973 11.6187 21.968 12.664 21.968C13.7733 21.968 14.7973 21.7547 15.736 21.328C16.6747 20.88 17.528 20.208 18.296 19.312L21.624 22.384C20.5573 23.6853 19.2347 24.6773 17.656 25.36C16.0987 26.0427 14.3387 26.384 12.376 26.384ZM32.371 26.256C30.5363 26.256 28.9043 25.872 27.475 25.104C26.067 24.336 24.947 23.2907 24.115 21.968C23.3043 20.624 22.899 19.0987 22.899 17.392C22.899 15.664 23.3043 14.1387 24.115 12.816C24.947 11.472 26.067 10.4267 27.475 9.68C28.9043 8.912 30.5363 8.528 32.371 8.528C34.1843 8.528 35.8057 8.912 37.235 9.68C38.6643 10.4267 39.7843 11.4613 40.595 12.784C41.4057 14.1067 41.811 15.6427 41.811 17.392C41.811 19.0987 41.4057 20.624 40.595 21.968C39.7843 23.2907 38.6643 24.336 37.235 25.104C35.8057 25.872 34.1843 26.256 32.371 26.256ZM32.371 22.16C33.203 22.16 33.9497 21.968 34.611 21.584C35.2723 21.2 35.795 20.656 36.179 19.952C36.563 19.2267 36.755 18.3733 36.755 17.392C36.755 16.3893 36.563 15.536 36.179 14.832C35.795 14.128 35.2723 13.584 34.611 13.2C33.9497 12.816 33.203 12.624 32.371 12.624C31.539 12.624 30.7923 12.816 30.131 13.2C29.4697 13.584 28.9363 14.128 28.531 14.832C28.147 15.536 27.955 16.3893 27.955 17.392C27.955 18.3733 28.147 19.2267 28.531 19.952C28.9363 20.656 29.4697 21.2 30.131 21.584C30.7923 21.968 31.539 22.16 32.371 22.16ZM67.1958 8.528C68.5611 8.528 69.7664 8.80533 70.8118 9.36C71.8784 9.89333 72.7104 10.7253 73.3078 11.856C73.9264 12.9653 74.2358 14.3947 74.2358 16.144V26H69.2438V16.912C69.2438 15.5253 68.9558 14.5013 68.3798 13.84C67.8038 13.1787 66.9931 12.848 65.9478 12.848C65.2224 12.848 64.5718 13.0187 63.9958 13.36C63.4198 13.68 62.9718 14.1707 62.6518 14.832C62.3318 15.4933 62.1718 16.336 62.1718 17.36V26H57.1798V16.912C57.1798 15.5253 56.8918 14.5013 56.3158 13.84C55.7611 13.1787 54.9611 12.848 53.9158 12.848C53.1904 12.848 52.5398 13.0187 51.9638 13.36C51.3878 13.68 50.9398 14.1707 50.6198 14.832C50.2998 15.4933 50.1398 16.336 50.1398 17.36V26H45.1478V8.784H49.9158V13.488L49.0198 12.112C49.6171 10.9387 50.4598 10.0533 51.5478 9.456C52.6571 8.83733 53.9158 8.528 55.3238 8.528C56.9024 8.528 58.2784 8.93333 59.4518 9.744C60.6464 10.5333 61.4358 11.7493 61.8198 13.392L60.0598 12.912C60.6358 11.568 61.5531 10.5013 62.8118 9.712C64.0918 8.92267 65.5531 8.528 67.1958 8.528ZM78.7103 26V8.784H83.7023V26H78.7103ZM81.2063 6.384C80.2889 6.384 79.5423 6.11733 78.9663 5.584C78.3903 5.05067 78.1023 4.38933 78.1023 3.6C78.1023 2.81067 78.3903 2.14933 78.9663 1.616C79.5423 1.08267 80.2889 0.815998 81.2063 0.815998C82.1236 0.815998 82.8703 1.072 83.4463 1.584C84.0223 2.07467 84.3103 2.71467 84.3103 3.504C84.3103 4.336 84.0223 5.02933 83.4463 5.584C82.8916 6.11733 82.1449 6.384 81.2063 6.384ZM98.7993 8.528C100.165 8.528 101.381 8.80533 102.447 9.36C103.535 9.89333 104.389 10.7253 105.007 11.856C105.626 12.9653 105.935 14.3947 105.935 16.144V26H100.943V16.912C100.943 15.5253 100.634 14.5013 100.015 13.84C99.4179 13.1787 98.5646 12.848 97.4553 12.848C96.6659 12.848 95.9513 13.0187 95.3113 13.36C94.6926 13.68 94.2019 14.1813 93.8393 14.864C93.4979 15.5467 93.3273 16.4213 93.3273 17.488V26H88.3353V8.784H93.1033V13.552L92.2073 12.112C92.8259 10.96 93.7113 10.0747 94.8633 9.456C96.0153 8.83733 97.3273 8.528 98.7993 8.528ZM118.681 32.464C117.06 32.464 115.492 32.2613 113.977 31.856C112.484 31.472 111.236 30.8853 110.233 30.096L112.217 26.512C112.943 27.1093 113.86 27.5787 114.969 27.92C116.1 28.2827 117.209 28.464 118.297 28.464C120.068 28.464 121.348 28.0693 122.137 27.28C122.948 26.4907 123.353 25.3173 123.353 23.76V21.168L123.673 16.848L123.609 12.496V8.784H128.345V23.12C128.345 26.32 127.513 28.6773 125.849 30.192C124.185 31.7067 121.796 32.464 118.681 32.464ZM117.913 25.168C116.313 25.168 114.863 24.8267 113.561 24.144C112.281 23.44 111.247 22.4693 110.457 21.232C109.689 19.9733 109.305 18.512 109.305 16.848C109.305 15.1627 109.689 13.7013 110.457 12.464C111.247 11.2053 112.281 10.2347 113.561 9.552C114.863 8.86933 116.313 8.528 117.913 8.528C119.364 8.528 120.644 8.82667 121.753 9.424C122.863 10 123.727 10.9067 124.345 12.144C124.964 13.36 125.273 14.928 125.273 16.848C125.273 18.7467 124.964 20.3147 124.345 21.552C123.727 22.768 122.863 23.6747 121.753 24.272C120.644 24.8693 119.364 25.168 117.913 25.168ZM118.905 21.072C119.78 21.072 120.559 20.9013 121.241 20.56C121.924 20.1973 122.457 19.696 122.841 19.056C123.225 18.416 123.417 17.68 123.417 16.848C123.417 15.9947 123.225 15.2587 122.841 14.64C122.457 14 121.924 13.5093 121.241 13.168C120.559 12.8053 119.78 12.624 118.905 12.624C118.031 12.624 117.252 12.8053 116.569 13.168C115.887 13.5093 115.343 14 114.937 14.64C114.553 15.2587 114.361 15.9947 114.361 16.848C114.361 17.68 114.553 18.416 114.937 19.056C115.343 19.696 115.887 20.1973 116.569 20.56C117.252 20.9013 118.031 21.072 118.905 21.072ZM149.766 26.384C147.974 26.384 146.257 26.1493 144.614 25.68C142.971 25.1893 141.649 24.56 140.646 23.792L142.406 19.888C143.366 20.5707 144.497 21.136 145.798 21.584C147.121 22.0107 148.454 22.224 149.798 22.224C150.822 22.224 151.643 22.128 152.262 21.936C152.902 21.7227 153.371 21.4347 153.67 21.072C153.969 20.7093 154.118 20.2933 154.118 19.824C154.118 19.2267 153.883 18.7573 153.414 18.416C152.945 18.0533 152.326 17.7653 151.558 17.552C150.79 17.3173 149.937 17.104 148.998 16.912C148.081 16.6987 147.153 16.4427 146.214 16.144C145.297 15.8453 144.454 15.4613 143.686 14.992C142.918 14.5227 142.289 13.904 141.798 13.136C141.329 12.368 141.094 11.3867 141.094 10.192C141.094 8.912 141.435 7.74933 142.118 6.704C142.822 5.63733 143.867 4.79467 145.254 4.176C146.662 3.536 148.422 3.216 150.534 3.216C151.942 3.216 153.329 3.38667 154.694 3.728C156.059 4.048 157.265 4.53867 158.31 5.2L156.71 9.136C155.665 8.53867 154.619 8.10133 153.574 7.824C152.529 7.52533 151.505 7.376 150.502 7.376C149.499 7.376 148.678 7.49333 148.038 7.728C147.398 7.96267 146.939 8.272 146.662 8.656C146.385 9.01867 146.246 9.44533 146.246 9.936C146.246 10.512 146.481 10.9813 146.95 11.344C147.419 11.6853 148.038 11.9627 148.806 12.176C149.574 12.3893 150.417 12.6027 151.334 12.816C152.273 13.0293 153.201 13.2747 154.118 13.552C155.057 13.8293 155.91 14.2027 156.678 14.672C157.446 15.1413 158.065 15.76 158.534 16.528C159.025 17.296 159.27 18.2667 159.27 19.44C159.27 20.6987 158.918 21.8507 158.214 22.896C157.51 23.9413 156.454 24.784 155.046 25.424C153.659 26.064 151.899 26.384 149.766 26.384ZM170.652 26.256C168.818 26.256 167.186 25.872 165.756 25.104C164.348 24.336 163.228 23.2907 162.396 21.968C161.586 20.624 161.18 19.0987 161.18 17.392C161.18 15.664 161.586 14.1387 162.396 12.816C163.228 11.472 164.348 10.4267 165.756 9.68C167.186 8.912 168.818 8.528 170.652 8.528C172.466 8.528 174.087 8.912 175.516 9.68C176.946 10.4267 178.066 11.4613 178.876 12.784C179.687 14.1067 180.092 15.6427 180.092 17.392C180.092 19.0987 179.687 20.624 178.876 21.968C178.066 23.2907 176.946 24.336 175.516 25.104C174.087 25.872 172.466 26.256 170.652 26.256ZM170.652 22.16C171.484 22.16 172.231 21.968 172.892 21.584C173.554 21.2 174.076 20.656 174.46 19.952C174.844 19.2267 175.036 18.3733 175.036 17.392C175.036 16.3893 174.844 15.536 174.46 14.832C174.076 14.128 173.554 13.584 172.892 13.2C172.231 12.816 171.484 12.624 170.652 12.624C169.82 12.624 169.074 12.816 168.412 13.2C167.751 13.584 167.218 14.128 166.812 14.832C166.428 15.536 166.236 16.3893 166.236 17.392C166.236 18.3733 166.428 19.2267 166.812 19.952C167.218 20.656 167.751 21.2 168.412 21.584C169.074 21.968 169.82 22.16 170.652 22.16ZM191.621 26.256C189.786 26.256 188.154 25.872 186.725 25.104C185.317 24.336 184.197 23.2907 183.365 21.968C182.554 20.624 182.149 19.0987 182.149 17.392C182.149 15.664 182.554 14.1387 183.365 12.816C184.197 11.472 185.317 10.4267 186.725 9.68C188.154 8.912 189.786 8.528 191.621 8.528C193.434 8.528 195.056 8.912 196.485 9.68C197.914 10.4267 199.034 11.4613 199.845 12.784C200.656 14.1067 201.061 15.6427 201.061 17.392C201.061 19.0987 200.656 20.624 199.845 21.968C199.034 23.2907 197.914 24.336 196.485 25.104C195.056 25.872 193.434 26.256 191.621 26.256ZM191.621 22.16C192.453 22.16 193.2 21.968 193.861 21.584C194.522 21.2 195.045 20.656 195.429 19.952C195.813 19.2267 196.005 18.3733 196.005 17.392C196.005 16.3893 195.813 15.536 195.429 14.832C195.045 14.128 194.522 13.584 193.861 13.2C193.2 12.816 192.453 12.624 191.621 12.624C190.789 12.624 190.042 12.816 189.381 13.2C188.72 13.584 188.186 14.128 187.781 14.832C187.397 15.536 187.205 16.3893 187.205 17.392C187.205 18.3733 187.397 19.2267 187.781 19.952C188.186 20.656 188.72 21.2 189.381 21.584C190.042 21.968 190.789 22.16 191.621 22.16ZM214.862 8.528C216.227 8.528 217.443 8.80533 218.51 9.36C219.598 9.89333 220.451 10.7253 221.07 11.856C221.688 12.9653 221.998 14.3947 221.998 16.144V26H217.006V16.912C217.006 15.5253 216.696 14.5013 216.078 13.84C215.48 13.1787 214.627 12.848 213.518 12.848C212.728 12.848 212.014 13.0187 211.374 13.36C210.755 13.68 210.264 14.1813 209.902 14.864C209.56 15.5467 209.39 16.4213 209.39 17.488V26H204.398V8.784H209.166V13.552L208.27 12.112C208.888 10.96 209.774 10.0747 210.926 9.456C212.078 8.83733 213.39 8.528 214.862 8.528Z" fill="#9C9C9C"/>
</svg>
