<svg width="99" height="130" viewBox="0 0 99 130" fill="none" xmlns="http://www.w3.org/2000/svg">
<path opacity="0.994" fill-rule="evenodd" clip-rule="evenodd" d="M39.7827 0C39.8707 0 39.9587 0 40.0467 0C47.2579 4.43492 53.9324 9.59845 60.0701 15.4906C66.6456 22.5102 72.0145 30.3729 76.1768 39.0786C78.7889 44.5687 80.3145 50.3483 80.7536 56.4175C81.0114 60.8322 80.3513 65.1009 78.7732 69.2236C78.8319 69.2823 78.8905 69.2823 78.9492 69.2236C82.9311 65.3173 84.6474 60.5793 84.0981 55.0092C84.0162 54.5788 83.9135 54.1534 83.7901 53.733C83.8194 53.689 83.8488 53.645 83.8781 53.601C92.3882 62.6425 95.2786 73.263 92.5475 85.4623C91.6797 89.1229 90.4616 92.6584 88.8949 96.0681C89.4345 95.8569 89.9625 95.5928 90.4792 95.276C94.6097 92.1937 97.0891 88.101 97.9164 82.9979C98.0705 84.1508 98.1726 85.295 98.2245 86.4305C98.2245 88.0148 98.2245 89.599 98.2245 91.1833C97.5177 101.089 93.5571 109.436 86.3425 116.224C81.0765 121.059 75.0915 124.786 68.3875 127.401C65.2389 128.509 62.0118 129.17 58.7059 129.382C54.9212 129.382 51.1366 129.382 47.3519 129.382C46.1603 129.305 44.9575 129.202 43.7433 129.074C49.8704 127.622 56.0021 126.185 62.1384 124.761C67.4693 119.137 72.7356 113.46 77.9371 107.73C80.0883 99.7524 82.2007 91.7721 84.2741 83.7901C69.6547 87.1893 55.0297 90.5778 40.3988 93.9558C40.1082 94.0438 39.8149 94.0728 39.5186 94.0438C40.3895 90.9272 41.2404 87.8025 42.0711 84.6702C46.757 83.5427 51.4511 82.4426 56.1534 81.3697C57.474 76.7049 58.7208 72.0254 59.8941 67.3313C55.2244 68.451 50.5449 69.5365 45.8557 70.5879C47.1609 65.719 48.4371 60.8488 49.6843 55.9774C45.0092 57.0838 40.3297 58.184 35.646 59.278C34.3193 64.1295 32.9991 68.985 31.6853 73.8444C26.9985 74.972 22.3044 76.0722 17.603 77.145C17.4348 77.2947 17.3321 77.4853 17.2949 77.717C16.1136 82.1637 14.9254 86.6085 13.7303 91.0513C13.7596 91.0953 13.789 91.1393 13.8183 91.1833C18.5026 90.0532 23.1968 88.9671 27.9007 87.9268C25.8454 95.7372 23.7623 103.541 21.6516 111.339C33.9733 108.595 46.2953 105.764 58.6178 102.845C62.0357 99.1926 65.4537 95.54 68.8716 91.8874C67.1913 98.309 65.4897 104.734 63.7667 111.163C63.7227 111.207 63.6787 111.251 63.6347 111.295C53.4837 113.642 43.3326 115.989 33.1816 118.336C32.4378 121.121 31.6603 123.893 30.8492 126.653C22.2407 124.493 14.8475 120.268 8.66946 113.979C4.54145 109.363 1.65163 104.052 0 98.0485C0 97.9604 0 97.8724 0 97.7844C3.37151 103.69 8.38835 107.402 15.0505 108.918C5.03625 101.981 0.620841 92.4023 1.8043 80.1815C2.29741 76.4191 3.32426 72.8105 4.88482 69.3556C6.25911 66.3131 7.81404 63.3793 9.5496 60.5542C11.8162 57.1064 14.1045 53.6739 16.4148 50.2564C17.7572 48.0116 18.6813 45.6059 19.1872 43.0392C19.5388 41.0075 19.4947 38.9832 19.0552 36.9662C18.756 35.6809 18.3893 34.4194 17.955 33.1816C22.971 34.7516 25.8021 38.1548 26.4484 43.3913C26.6262 45.2472 26.5968 47.0956 26.3604 48.9362C29.021 45.4049 31.5735 41.7963 34.0177 38.1104C36.9117 33.6419 39.1708 28.8598 40.7948 23.764C42.4502 17.7894 42.597 11.7751 41.2349 5.72096C40.7919 3.80193 40.3078 1.89495 39.7827 0Z" fill="#9B9B9B"/>
</svg>
