<svg version="1.1" id="Layer_1" xmlns="http://www.w3.org/2000/svg" xmlns:xlink="http://www.w3.org/1999/xlink" x="0px" y="0px"
	 width="100%" viewBox="0 0 1774 536" enable-background="new 0 0 1774 536" xml:space="preserve">
<path fill="#FEFEFE" opacity="1.000000" stroke="none" 
	d="
M1064.000000,537.000000 
	C709.666687,537.000000 355.333313,537.000000 1.000000,537.000000 
	C1.000000,508.568359 1.000000,480.245453 1.444058,451.299072 
	C22.173443,450.675659 42.458771,450.675659 63.280556,450.675659 
	C63.280556,401.821167 63.280556,353.443207 63.280556,305.212311 
	C106.880043,305.212311 149.938095,305.212311 193.329407,305.212311 
	C193.329407,353.834717 193.329407,402.085083 193.329407,450.434570 
	C214.073212,450.434570 234.479568,450.434570 254.795593,450.434570 
	C254.795593,330.099457 254.795593,210.063812 254.795593,90.121292 
	C234.121918,90.121292 213.848480,90.121292 193.089417,90.121292 
	C193.089417,140.422363 193.089417,190.483276 193.089417,240.654175 
	C149.564056,240.654175 106.527641,240.654175 62.968407,240.654175 
	C62.968407,190.269104 62.968407,140.220078 62.968407,90.122818 
	C42.311214,90.122818 22.177763,90.122818 1.791617,90.020828 
	C1.359282,89.945900 1.179641,89.972954 1.000000,90.000000 
	C1.000000,60.343182 1.000000,30.686365 1.000000,1.000000 
	C395.359161,1.000000 789.718323,1.000000 1184.395752,1.358695 
	C1182.143066,2.378386 1179.527222,2.901574 1177.007812,3.721288 
	C1145.405273,14.003518 1131.338013,53.475475 1148.445312,83.783051 
	C1161.881958,107.587540 1189.176025,117.091774 1212.536621,105.709648 
	C1216.484985,103.785927 1218.731934,104.060585 1222.021484,106.795609 
	C1265.959595,143.326553 1310.030396,179.697693 1354.063354,216.114471 
	C1361.597778,222.345734 1369.109863,228.604187 1376.433105,234.684708 
	C1347.855957,287.302032 1348.383667,338.952271 1378.786743,390.382355 
	C1363.878174,406.177429 1348.902222,422.043854 1333.926025,437.910034 
	C1333.468506,438.394745 1333.089233,439.136566 1332.533203,439.310822 
	C1330.809204,439.851013 1329.026123,440.476410 1327.250366,440.527649 
	C1321.317505,440.698700 1315.131104,439.554688 1309.483276,440.845612 
	C1284.292847,446.603424 1270.572144,472.888397 1278.706421,498.762024 
	C1287.120850,525.526733 1316.628418,537.428040 1339.698975,523.362183 
	C1355.566406,513.688049 1363.256470,495.017761 1359.824341,475.270050 
	C1359.471802,473.241241 1360.203613,470.292114 1361.564697,468.810272 
	C1375.538696,453.596405 1389.742676,438.593719 1403.898804,423.547424 
	C1404.755493,422.636932 1405.750000,421.856140 1406.708496,420.989502 
	C1407.655762,421.699158 1408.323853,422.185730 1408.977295,422.691223 
	C1455.109741,458.376190 1517.618408,458.623871 1562.834229,421.856628 
	C1604.872437,387.673431 1620.977295,342.265350 1613.207520,289.259521 
	C1606.444702,243.123505 1582.406982,207.813766 1539.972900,186.755234 
	C1528.640015,181.131149 1516.118774,177.901901 1503.453735,173.324036 
	C1503.453735,154.468384 1503.406616,134.502075 1503.566406,114.537392 
	C1503.576416,113.286934 1504.938721,111.634369 1506.124023,110.867897 
	C1525.770874,98.163300 1532.542603,79.877441 1528.845825,57.445656 
	C1524.297363,29.845497 1496.912842,12.498460 1470.691772,20.603598 
	C1451.515747,26.531063 1440.910522,40.519344 1438.250732,59.825779 
	C1435.434692,80.267090 1441.507568,97.834877 1459.558960,109.594147 
	C1462.870728,111.751541 1463.794312,113.833351 1463.756592,117.485558 
	C1463.585083,134.147919 1463.681641,150.813049 1463.681885,167.477173 
	C1463.682007,169.910492 1463.681885,172.343811 1463.681885,174.868546 
	C1440.483643,178.892868 1420.513550,188.616959 1402.835571,203.344299 
	C1401.047241,201.904404 1399.490479,200.684311 1397.969360,199.421295 
	C1347.599243,157.598923 1297.278198,115.717133 1246.779053,74.051132 
	C1242.715942,70.698708 1241.359375,67.850845 1242.328979,62.493599 
	C1246.851685,37.509701 1230.833008,11.321960 1206.740967,3.484529 
	C1203.862549,2.548176 1200.915283,1.823021 1198.000000,0.999989 
	C1390.287231,1.000000 1582.574585,1.000000 1774.930908,1.000000 
	C1774.930908,179.577789 1774.930908,358.155640 1774.930908,537.000000 
	C1557.974243,537.000000 1340.948364,537.000000 1123.483887,536.531860 
	C1123.045166,497.060577 1123.045166,458.057495 1123.045166,418.035034 
	C1134.748535,429.912933 1146.826294,439.080994 1161.870117,443.061890 
	C1200.970703,453.408600 1236.331543,445.161224 1266.807251,419.006226 
	C1299.533569,390.919647 1314.562744,354.120270 1313.697144,311.422943 
	C1312.584717,256.544495 1287.659058,215.240585 1238.215088,190.825790 
	C1193.049438,168.523575 1141.802246,173.886765 1104.242676,212.029266 
	C1076.634277,240.066101 1064.560913,274.835205 1064.290649,313.521088 
	C1063.783081,386.180756 1064.146118,458.846497 1064.139282,531.509705 
	C1064.139038,533.339783 1064.048462,535.169922 1064.000000,537.000000 
M662.768555,450.728455 
	C690.780212,451.423645 716.484253,444.032593 739.530884,428.121002 
	C785.875183,396.124542 807.555847,339.157745 794.464661,283.529083 
	C783.950256,238.850052 758.993774,205.484543 715.510376,188.595398 
	C686.920166,177.490845 657.753418,177.236160 630.050537,192.383026 
	C621.882935,196.848770 614.817322,203.330048 606.867981,209.165695 
	C606.867981,170.159195 606.867981,131.143753 606.867981,92.279800 
	C587.020996,92.279800 567.753601,92.279800 548.101013,92.279800 
	C548.101013,94.186066 548.101013,95.815697 548.101013,97.445328 
	C548.100891,169.611298 548.066284,241.777298 548.124817,313.943207 
	C548.139526,332.062347 550.688049,349.880768 557.241943,366.807861 
	C575.858582,414.890656 608.482422,445.784180 662.768555,450.728455 
M826.923523,408.567444 
	C856.949829,441.206543 893.846558,455.476105 937.910217,448.799988 
	C973.029358,443.479065 1000.536377,426.240814 1017.076904,393.886292 
	C1027.848633,372.815979 1029.255127,350.267609 1026.451782,327.193481 
	C1023.773071,305.145233 1016.485168,285.140198 1000.581909,269.012573 
	C987.917114,256.168976 972.304932,248.100800 955.627319,241.877304 
	C940.219116,236.127548 924.483765,231.149811 909.408325,224.637833 
	C886.724060,214.839142 882.257385,196.303848 892.545837,172.636337 
	C896.030212,164.620804 902.785278,159.698227 910.981140,156.839905 
	C924.432556,152.148682 937.432495,153.480408 950.163635,159.619431 
	C963.055176,165.835800 974.020996,174.550842 983.849060,185.357620 
	C996.846375,169.140396 1009.617310,153.205612 1022.755188,136.813049 
	C1019.151917,132.659500 1016.010620,128.327271 1012.177368,124.732956 
	C982.931091,97.309349 948.637939,85.285522 908.700012,92.283249 
	C875.587646,98.085037 849.356201,114.241234 833.754211,145.078445 
	C824.895142,162.588364 822.236694,181.382858 822.731140,200.809494 
	C823.643005,236.632324 838.211670,264.457245 870.529419,281.454407 
	C881.233582,287.084167 892.646240,291.377533 903.781311,296.174286 
	C915.369202,301.166107 927.170410,305.693481 938.579041,311.060181 
	C946.643127,314.853607 953.436584,320.560730 957.979858,328.511414 
	C970.826904,350.993378 956.257080,381.066803 929.664978,385.728821 
	C910.226685,389.136627 892.523438,384.430176 878.161865,370.340393 
	C871.669006,363.970459 865.955994,356.805756 859.620728,349.700500 
	C845.426880,365.337921 831.287415,380.915375 816.973633,396.684937 
	C820.272461,400.639099 823.359741,404.339722 826.923523,408.567444 
M452.460663,286.499725 
	C452.458466,300.829681 452.495728,315.159821 452.432037,329.489502 
	C452.410706,334.289490 452.618042,339.163574 451.889191,343.875122 
	C448.132324,368.161224 426.568024,387.789185 403.557800,388.179993 
	C375.188080,388.661835 351.087921,364.762970 351.035828,335.827332 
	C350.945557,285.674377 351.009857,235.521164 351.009338,185.368073 
	C351.009308,183.594513 351.009338,181.820953 351.009338,180.026154 
	C331.065338,180.026154 311.654877,180.026154 291.924316,180.026154 
	C291.924316,181.909256 291.924286,183.539597 291.924286,185.169952 
	C291.924530,234.823181 291.924988,284.476410 291.925018,334.129639 
	C291.925018,358.576538 298.535187,381.062592 311.880707,401.564636 
	C336.448608,439.307159 382.258698,458.273407 424.588623,448.208191 
	C474.801575,436.268524 510.999939,389.786072 511.052551,337.050018 
	C511.103394,286.063843 511.065582,235.077621 511.066681,184.091415 
	C511.066711,182.799103 511.066650,181.506790 511.066650,179.994812 
	C491.433533,179.994812 472.183472,179.994812 452.460724,179.994812 
	C452.460724,215.260406 452.460724,250.380051 452.460663,286.499725 
M1763.576660,217.500229 
	C1763.576660,208.105453 1763.576660,198.710678 1763.576660,188.989655 
	C1745.069824,188.989655 1727.464478,188.989655 1709.343994,188.989655 
	C1709.343994,164.942642 1709.343994,141.241653 1709.343994,117.156067 
	C1707.856567,117.756561 1706.926270,118.074028 1706.046143,118.496101 
	C1688.804565,126.765823 1671.628662,135.176544 1654.283325,143.222321 
	C1650.651245,144.907120 1649.738281,146.928650 1649.745361,150.722702 
	C1649.868042,215.712753 1649.829834,280.703094 1649.840698,345.693359 
	C1649.842285,355.190948 1649.451904,364.717133 1650.038818,374.180664 
	C1651.682739,400.681091 1661.364868,423.197815 1684.689819,437.754883 
	C1707.175171,451.787994 1732.068237,453.089081 1757.531250,449.545898 
	C1758.853271,449.361938 1760.526978,447.194214 1760.935303,445.657379 
	C1764.778076,431.192749 1768.388062,416.666260 1772.046509,402.152893 
	C1772.853760,398.950806 1773.587158,395.730133 1774.464355,392.057892 
	C1764.047485,392.057892 1754.065063,392.540192 1744.145508,391.955566 
	C1724.647095,390.806396 1712.977539,380.554321 1710.238159,362.837433 
	C1709.731567,359.561646 1709.616333,356.198944 1709.612305,352.875977 
	C1709.571045,318.381195 1709.589722,283.886322 1709.591675,249.391495 
	C1709.591797,247.946640 1709.591553,246.501770 1709.591553,244.487885 
	C1727.798340,244.487885 1745.517944,244.487885 1763.576660,244.487885 
	C1763.576660,235.443527 1763.576660,226.971878 1763.576660,217.500229 
z"/>
<path fill="#010101" opacity="1.000000" stroke="none" 
	d="
M1197.536865,0.999989 
	C1200.915283,1.823021 1203.862549,2.548176 1206.740967,3.484529 
	C1230.833008,11.321960 1246.851685,37.509701 1242.328979,62.493599 
	C1241.359375,67.850845 1242.715942,70.698708 1246.779053,74.051132 
	C1297.278198,115.717133 1347.599243,157.598923 1397.969360,199.421295 
	C1399.490479,200.684311 1401.047241,201.904404 1402.835571,203.344299 
	C1420.513550,188.616959 1440.483643,178.892868 1463.681885,174.868546 
	C1463.681885,172.343811 1463.682007,169.910492 1463.681885,167.477173 
	C1463.681641,150.813049 1463.585083,134.147919 1463.756592,117.485558 
	C1463.794312,113.833351 1462.870728,111.751541 1459.558960,109.594147 
	C1441.507568,97.834877 1435.434692,80.267090 1438.250732,59.825779 
	C1440.910522,40.519344 1451.515747,26.531063 1470.691772,20.603598 
	C1496.912842,12.498460 1524.297363,29.845497 1528.845825,57.445656 
	C1532.542603,79.877441 1525.770874,98.163300 1506.124023,110.867897 
	C1504.938721,111.634369 1503.576416,113.286934 1503.566406,114.537392 
	C1503.406616,134.502075 1503.453735,154.468384 1503.453735,173.324036 
	C1516.118774,177.901901 1528.640015,181.131149 1539.972900,186.755234 
	C1582.406982,207.813766 1606.444702,243.123505 1613.207520,289.259521 
	C1620.977295,342.265350 1604.872437,387.673431 1562.834229,421.856628 
	C1517.618408,458.623871 1455.109741,458.376190 1408.977295,422.691223 
	C1408.323853,422.185730 1407.655762,421.699158 1406.708496,420.989502 
	C1405.750000,421.856140 1404.755493,422.636932 1403.898804,423.547424 
	C1389.742676,438.593719 1375.538696,453.596405 1361.564697,468.810272 
	C1360.203613,470.292114 1359.471802,473.241241 1359.824341,475.270050 
	C1363.256470,495.017761 1355.566406,513.688049 1339.698975,523.362183 
	C1316.628418,537.428040 1287.120850,525.526733 1278.706421,498.762024 
	C1270.572144,472.888397 1284.292847,446.603424 1309.483276,440.845612 
	C1315.131104,439.554688 1321.317505,440.698700 1327.250366,440.527649 
	C1329.026123,440.476410 1330.809204,439.851013 1332.533203,439.310822 
	C1333.089233,439.136566 1333.468506,438.394745 1333.926025,437.910034 
	C1348.902222,422.043854 1363.878174,406.177429 1378.786743,390.382355 
	C1348.383667,338.952271 1347.855957,287.302032 1376.433105,234.684708 
	C1369.109863,228.604187 1361.597778,222.345734 1354.063354,216.114471 
	C1310.030396,179.697693 1265.959595,143.326553 1222.021484,106.795609 
	C1218.731934,104.060585 1216.484985,103.785927 1212.536621,105.709648 
	C1189.176025,117.091774 1161.881958,107.587540 1148.445312,83.783051 
	C1131.338013,53.475475 1145.405273,14.003518 1177.007812,3.721288 
	C1179.527222,2.901574 1182.143066,2.378386 1184.857056,1.358695 
	C1189.024536,1.000000 1193.049072,1.000000 1197.536865,0.999989 
M1441.184082,257.670868 
	C1420.471558,277.702209 1413.525024,302.017303 1420.123169,329.764587 
	C1430.489258,373.357025 1477.324585,394.947693 1514.908813,373.056702 
	C1541.495605,357.571228 1552.002197,332.842590 1548.987549,302.761993 
	C1546.359375,276.539124 1532.705322,256.944000 1508.436401,246.464279 
	C1484.422485,236.094711 1461.851929,240.559326 1441.184082,257.670868 
z"/>
<path fill="#010101" opacity="1.000000" stroke="none" 
	d="
M2.044311,90.122818 
	C22.177763,90.122818 42.311214,90.122818 62.968407,90.122818 
	C62.968407,140.220078 62.968407,190.269104 62.968407,240.654175 
	C106.527641,240.654175 149.564056,240.654175 193.089417,240.654175 
	C193.089417,190.483276 193.089417,140.422363 193.089417,90.121292 
	C213.848480,90.121292 234.121918,90.121292 254.795593,90.121292 
	C254.795593,210.063812 254.795593,330.099457 254.795593,450.434570 
	C234.479568,450.434570 214.073212,450.434570 193.329407,450.434570 
	C193.329407,402.085083 193.329407,353.834717 193.329407,305.212311 
	C149.938095,305.212311 106.880043,305.212311 63.280556,305.212311 
	C63.280556,353.443207 63.280556,401.821167 63.280556,450.675659 
	C42.458771,450.675659 22.173443,450.675659 1.444058,450.837830 
	C1.000000,450.555542 1.000000,450.111115 1.324866,449.066101 
	C1.759589,446.480865 1.964660,444.496216 1.965372,442.511536 
	C1.983120,393.026917 1.971209,343.542297 1.981264,294.057678 
	C1.995078,226.079391 2.022640,158.101105 2.044311,90.122818 
z"/>
<path fill="#010101" opacity="1.000000" stroke="none" 
	d="
M1064.468628,537.000000 
	C1064.048462,535.169922 1064.139038,533.339783 1064.139282,531.509705 
	C1064.146118,458.846497 1063.783081,386.180756 1064.290649,313.521088 
	C1064.560913,274.835205 1076.634277,240.066101 1104.242676,212.029266 
	C1141.802246,173.886765 1193.049438,168.523575 1238.215088,190.825790 
	C1287.659058,215.240585 1312.584717,256.544495 1313.697144,311.422943 
	C1314.562744,354.120270 1299.533569,390.919647 1266.807251,419.006226 
	C1236.331543,445.161224 1200.970703,453.408600 1161.870117,443.061890 
	C1146.826294,439.080994 1134.748535,429.912933 1123.045166,418.035034 
	C1123.045166,458.057495 1123.045166,497.060577 1123.022583,536.531860 
	C1103.645752,537.000000 1084.291504,537.000000 1064.468628,537.000000 
M1158.813599,373.742859 
	C1178.523071,384.973022 1198.879639,386.801727 1219.346436,376.498840 
	C1261.560059,355.248749 1271.372437,297.287231 1238.962280,262.375427 
	C1213.353271,234.789719 1173.280273,233.697403 1146.314453,259.850067 
	C1113.250244,291.917297 1119.120605,347.904266 1158.813599,373.742859 
z"/>
<path fill="#424242" opacity="1.000000" stroke="none" 
	d="
M1.791617,90.020828 
	C2.022640,158.101105 1.995078,226.079391 1.981264,294.057678 
	C1.971209,343.542297 1.983120,393.026917 1.965372,442.511536 
	C1.964660,444.496216 1.759589,446.480865 1.324866,448.732758 
	C1.000000,329.645782 1.000000,210.291550 1.000000,90.468658 
	C1.179641,89.972954 1.359282,89.945900 1.791617,90.020828 
z"/>
<path fill="#010101" opacity="1.000000" stroke="none" 
	d="
M662.301880,450.707581 
	C608.482422,445.784180 575.858582,414.890656 557.241943,366.807861 
	C550.688049,349.880768 548.139526,332.062347 548.124817,313.943207 
	C548.066284,241.777298 548.100891,169.611298 548.101013,97.445328 
	C548.101013,95.815697 548.101013,94.186066 548.101013,92.279800 
	C567.753601,92.279800 587.020996,92.279800 606.867981,92.279800 
	C606.867981,131.143753 606.867981,170.159195 606.867981,209.165695 
	C614.817322,203.330048 621.882935,196.848770 630.050537,192.383026 
	C657.753418,177.236160 686.920166,177.490845 715.510376,188.595398 
	C758.993774,205.484543 783.950256,238.850052 794.464661,283.529083 
	C807.555847,339.157745 785.875183,396.124542 739.530884,428.121002 
	C716.484253,444.032593 690.780212,451.423645 662.301880,450.707581 
M717.269104,261.202179 
	C699.486633,246.586594 679.306152,241.898071 657.411133,248.800995 
	C609.042358,264.050354 592.864868,328.000854 627.491150,365.647583 
	C658.685608,399.563141 709.919678,393.717102 732.699890,353.642792 
	C750.076050,323.075256 744.040100,285.849609 717.269104,261.202179 
z"/>
<path fill="#010101" opacity="1.000000" stroke="none" 
	d="
M826.685303,408.303894 
	C823.359741,404.339722 820.272461,400.639099 816.973633,396.684937 
	C831.287415,380.915375 845.426880,365.337921 859.620728,349.700500 
	C865.955994,356.805756 871.669006,363.970459 878.161865,370.340393 
	C892.523438,384.430176 910.226685,389.136627 929.664978,385.728821 
	C956.257080,381.066803 970.826904,350.993378 957.979858,328.511414 
	C953.436584,320.560730 946.643127,314.853607 938.579041,311.060181 
	C927.170410,305.693481 915.369202,301.166107 903.781311,296.174286 
	C892.646240,291.377533 881.233582,287.084167 870.529419,281.454407 
	C838.211670,264.457245 823.643005,236.632324 822.731140,200.809494 
	C822.236694,181.382858 824.895142,162.588364 833.754211,145.078445 
	C849.356201,114.241234 875.587646,98.085037 908.700012,92.283249 
	C948.637939,85.285522 982.931091,97.309349 1012.177368,124.732956 
	C1016.010620,128.327271 1019.151917,132.659500 1022.755188,136.813049 
	C1009.617310,153.205612 996.846375,169.140396 983.849060,185.357620 
	C974.020996,174.550842 963.055176,165.835800 950.163635,159.619431 
	C937.432495,153.480408 924.432556,152.148682 910.981140,156.839905 
	C902.785278,159.698227 896.030212,164.620804 892.545837,172.636337 
	C882.257385,196.303848 886.724060,214.839142 909.408325,224.637833 
	C924.483765,231.149811 940.219116,236.127548 955.627319,241.877304 
	C972.304932,248.100800 987.917114,256.168976 1000.581909,269.012573 
	C1016.485168,285.140198 1023.773071,305.145233 1026.451782,327.193481 
	C1029.255127,350.267609 1027.848633,372.815979 1017.076904,393.886292 
	C1000.536377,426.240814 973.029358,443.479065 937.910217,448.799988 
	C893.846558,455.476105 856.949829,441.206543 826.685303,408.303894 
z"/>
<path fill="#010101" opacity="1.000000" stroke="none" 
	d="
M452.460693,285.999695 
	C452.460724,250.380051 452.460724,215.260406 452.460724,179.994812 
	C472.183472,179.994812 491.433533,179.994812 511.066650,179.994812 
	C511.066650,181.506790 511.066711,182.799103 511.066681,184.091415 
	C511.065582,235.077621 511.103394,286.063843 511.052551,337.050018 
	C510.999939,389.786072 474.801575,436.268524 424.588623,448.208191 
	C382.258698,458.273407 336.448608,439.307159 311.880707,401.564636 
	C298.535187,381.062592 291.925018,358.576538 291.925018,334.129639 
	C291.924988,284.476410 291.924530,234.823181 291.924286,185.169952 
	C291.924286,183.539597 291.924316,181.909256 291.924316,180.026154 
	C311.654877,180.026154 331.065338,180.026154 351.009338,180.026154 
	C351.009338,181.820953 351.009308,183.594513 351.009338,185.368073 
	C351.009857,235.521164 350.945557,285.674377 351.035828,335.827332 
	C351.087921,364.762970 375.188080,388.661835 403.557800,388.179993 
	C426.568024,387.789185 448.132324,368.161224 451.889191,343.875122 
	C452.618042,339.163574 452.410706,334.289490 452.432037,329.489502 
	C452.495728,315.159821 452.458466,300.829681 452.460693,285.999695 
z"/>
<path fill="#020202" opacity="1.000000" stroke="none" 
	d="
M1763.576660,218.000229 
	C1763.576660,226.971878 1763.576660,235.443527 1763.576660,244.487885 
	C1745.517944,244.487885 1727.798340,244.487885 1709.591553,244.487885 
	C1709.591553,246.501770 1709.591797,247.946640 1709.591675,249.391495 
	C1709.589722,283.886322 1709.571045,318.381195 1709.612305,352.875977 
	C1709.616333,356.198944 1709.731567,359.561646 1710.238159,362.837433 
	C1712.977539,380.554321 1724.647095,390.806396 1744.145508,391.955566 
	C1754.065063,392.540192 1764.047485,392.057892 1774.464355,392.057892 
	C1773.587158,395.730133 1772.853760,398.950806 1772.046509,402.152893 
	C1768.388062,416.666260 1764.778076,431.192749 1760.935303,445.657379 
	C1760.526978,447.194214 1758.853271,449.361938 1757.531250,449.545898 
	C1732.068237,453.089081 1707.175171,451.787994 1684.689819,437.754883 
	C1661.364868,423.197815 1651.682739,400.681091 1650.038818,374.180664 
	C1649.451904,364.717133 1649.842285,355.190948 1649.840698,345.693359 
	C1649.829834,280.703094 1649.868042,215.712753 1649.745361,150.722702 
	C1649.738281,146.928650 1650.651245,144.907120 1654.283325,143.222321 
	C1671.628662,135.176544 1688.804565,126.765823 1706.046143,118.496101 
	C1706.926270,118.074028 1707.856567,117.756561 1709.343994,117.156067 
	C1709.343994,141.241653 1709.343994,164.942642 1709.343994,188.989655 
	C1727.464478,188.989655 1745.069824,188.989655 1763.576660,188.989655 
	C1763.576660,198.710678 1763.576660,208.105453 1763.576660,218.000229 
z"/>
<path fill="#FEFEFE" opacity="1.000000" stroke="none" 
	d="
M1441.441406,257.427002 
	C1461.851929,240.559326 1484.422485,236.094711 1508.436401,246.464279 
	C1532.705322,256.944000 1546.359375,276.539124 1548.987549,302.761993 
	C1552.002197,332.842590 1541.495605,357.571228 1514.908813,373.056702 
	C1477.324585,394.947693 1430.489258,373.357025 1420.123169,329.764587 
	C1413.525024,302.017303 1420.471558,277.702209 1441.441406,257.427002 
z"/>
<path fill="#FEFEFE" opacity="1.000000" stroke="none" 
	d="
M1158.513306,373.535858 
	C1119.120605,347.904266 1113.250244,291.917297 1146.314453,259.850067 
	C1173.280273,233.697403 1213.353271,234.789719 1238.962280,262.375427 
	C1271.372437,297.287231 1261.560059,355.248749 1219.346436,376.498840 
	C1198.879639,386.801727 1178.523071,384.973022 1158.513306,373.535858 
z"/>
<path fill="#FEFEFE" opacity="1.000000" stroke="none" 
	d="
M717.529419,261.444763 
	C744.040100,285.849609 750.076050,323.075256 732.699890,353.642792 
	C709.919678,393.717102 658.685608,399.563141 627.491150,365.647583 
	C592.864868,328.000854 609.042358,264.050354 657.411133,248.800995 
	C679.306152,241.898071 699.486633,246.586594 717.529419,261.444763 
z"/>
</svg>