<svg width="313" height="61" viewBox="0 0 313 61" fill="none" xmlns="http://www.w3.org/2000/svg">
<g clip-path="url(#clip0_54_9181)">
<path opacity="0.913" fill-rule="evenodd" clip-rule="evenodd" d="M-0.297607 -0.297607C1.28921 -0.297607 2.87603 -0.297607 4.46285 -0.297607C4.46285 6.84308 4.46285 13.9838 4.46285 21.1244C8.23152 21.1244 12.0003 21.1244 15.7689 21.1244C15.7689 13.9838 15.7689 6.84308 15.7689 -0.297607C17.3558 -0.297607 18.9425 -0.297607 20.5294 -0.297607C20.5294 15.9673 20.5294 32.2322 20.5294 48.4971C18.9425 48.4971 17.3558 48.4971 15.7689 48.4971C15.7689 40.7613 15.7689 33.0256 15.7689 25.2898C12.0003 25.2898 8.23152 25.2898 4.46285 25.2898C4.46285 33.0256 4.46285 40.7613 4.46285 48.4971C2.87603 48.4971 1.28921 48.4971 -0.297607 48.4971C-0.297607 32.2322 -0.297607 15.9673 -0.297607 -0.297607Z" fill="#929292"/>
<path opacity="0.924" fill-rule="evenodd" clip-rule="evenodd" d="M146.086 -0.297607C148.665 -0.297607 151.244 -0.297607 153.822 -0.297607C153.723 8.63045 153.822 17.5563 154.12 26.48C155.495 23.3437 156.983 20.2692 158.583 17.2566C161.36 16.8598 164.136 16.8598 166.913 17.2566C164.376 21.9341 161.996 26.6945 159.773 31.5379C162.108 37.1006 164.686 42.5553 167.508 47.902C164.753 48.5932 161.976 48.6924 159.178 48.1995C157.263 44.4402 155.576 40.5723 154.12 36.5959C153.822 40.558 153.723 44.5251 153.822 48.4971C151.244 48.4971 148.665 48.4971 146.086 48.4971C146.086 32.2322 146.086 15.9673 146.086 -0.297607Z" fill="#929292"/>
<path opacity="0.878" fill-rule="evenodd" clip-rule="evenodd" d="M172.864 -0.297607C178.418 -0.297607 183.972 -0.297607 189.526 -0.297607C190.102 0.184047 190.598 0.779107 191.013 1.48756C191.311 6.04534 191.41 10.6075 191.311 15.1739C189.724 15.1739 188.137 15.1739 186.55 15.1739C186.55 11.4052 186.55 7.63647 186.55 3.86779C183.178 3.86779 179.807 3.86779 176.434 3.86779C176.336 7.24557 176.435 10.6176 176.732 13.9838C181.519 19.3646 186.081 24.9184 190.418 30.6454C191.358 35.9554 191.557 41.3109 191.013 46.7119C190.278 47.9249 189.187 48.6191 187.741 48.7946C182.744 49.3122 177.785 49.1138 172.864 48.1995C172.567 47.902 172.269 47.6045 171.972 47.307C171.674 42.5506 171.575 37.7901 171.674 33.0256C173.261 33.0256 174.847 33.0256 176.434 33.0256C176.434 36.9927 176.434 40.9597 176.434 44.9267C179.807 44.9267 183.178 44.9267 186.55 44.9267C186.649 41.1528 186.55 37.3841 186.253 33.6206C181.265 27.6418 176.505 21.4928 171.972 15.1739C171.575 10.4134 171.575 5.65296 171.972 0.892507C172.398 0.568674 172.696 0.17197 172.864 -0.297607Z" fill="#929292"/>
<path opacity="0.866" fill-rule="evenodd" clip-rule="evenodd" d="M108.003 5.05811C110.581 5.05811 113.16 5.05811 115.739 5.05811C115.739 7.83506 115.739 10.612 115.739 13.3889C113.16 13.3889 110.581 13.3889 108.003 13.3889C108.003 10.612 108.003 7.83506 108.003 5.05811Z" fill="#EA455E"/>
<path opacity="0.887" fill-rule="evenodd" clip-rule="evenodd" d="M52.6626 8.62842C54.2495 8.62842 55.8362 8.62842 57.4231 8.62842C57.4231 11.802 57.4231 14.9757 57.4231 18.1493C59.0099 18.1493 60.5965 18.1493 62.1835 18.1493C62.1835 19.5378 62.1835 20.9263 62.1835 22.3147C60.5965 22.3147 59.0099 22.3147 57.4231 22.3147C57.4231 29.8521 57.4231 37.3895 57.4231 44.9269C59.0099 44.9269 60.5965 44.9269 62.1835 44.9269C62.1835 46.117 62.1835 47.3071 62.1835 48.4972C59.3996 48.5959 56.6226 48.4968 53.8527 48.1997C53.5552 47.9022 53.2577 47.6047 52.9602 47.3071C52.6627 38.9787 52.5635 30.6479 52.6626 22.3147C51.4725 22.3147 50.2824 22.3147 49.0923 22.3147C49.0923 20.9263 49.0923 19.5378 49.0923 18.1493C50.2824 18.1493 51.4725 18.1493 52.6626 18.1493C52.6626 14.9757 52.6626 11.802 52.6626 8.62842Z" fill="#929292"/>
<path opacity="0.928" fill-rule="evenodd" clip-rule="evenodd" d="M68.729 8.62842C71.3074 8.62842 73.8864 8.62842 76.4648 8.62842C76.4648 11.4054 76.4648 14.1823 76.4648 16.9592C77.853 16.9592 79.2419 16.9592 80.6302 16.9592C80.6302 19.1411 80.6302 21.3229 80.6302 23.5048C79.2419 23.5048 77.853 23.5048 76.4648 23.5048C76.4648 29.8521 76.4648 36.1994 76.4648 42.5467C78.0518 42.5467 79.6382 42.5467 81.2252 42.5467C81.2252 44.5302 81.2252 46.5137 81.2252 48.4972C77.4514 48.5961 73.6829 48.4969 69.9191 48.1997C69.6216 47.9022 69.3241 47.6047 69.0266 47.3071C68.729 39.3755 68.6297 31.4414 68.729 23.5048C67.5389 23.5048 66.3488 23.5048 65.1587 23.5048C65.1587 21.3229 65.1587 19.1411 65.1587 16.9592C66.3488 16.9592 67.5389 16.9592 68.729 16.9592C68.729 14.1823 68.729 11.4054 68.729 8.62842Z" fill="#929292"/>
<path opacity="0.875" fill-rule="evenodd" clip-rule="evenodd" d="M268.668 8.62842C270.255 8.62842 271.842 8.62842 273.429 8.62842C273.429 11.802 273.429 14.9757 273.429 18.1493C275.016 18.1493 276.602 18.1493 278.189 18.1493C278.189 19.5378 278.189 20.9263 278.189 22.3147C276.602 22.3147 275.016 22.3147 273.429 22.3147C273.429 29.8521 273.429 37.3895 273.429 44.9269C275.016 44.9269 276.602 44.9269 278.189 44.9269C278.189 46.3153 278.189 47.7038 278.189 49.0923C276.196 49.1905 274.212 49.0913 272.239 48.7948C270.944 48.6978 269.853 48.2019 268.966 47.3071C268.668 38.9787 268.569 30.6479 268.668 22.3147C267.478 22.3147 266.288 22.3147 265.098 22.3147C265.098 20.9263 265.098 19.5378 265.098 18.1493C266.288 18.1493 267.478 18.1493 268.668 18.1493C268.668 14.9757 268.668 11.802 268.668 8.62842Z" fill="#929292"/>
<path opacity="0.919" fill-rule="evenodd" clip-rule="evenodd" d="M84.2007 16.959C87.07 16.6226 89.7478 17.0193 92.234 18.1491C95.8412 16.9148 99.5109 16.7164 103.243 17.5541C103.654 17.8667 103.952 18.2633 104.135 18.7442C104.433 22.7063 104.531 26.6733 104.433 30.6453C101.854 30.6453 99.2753 30.6453 96.6969 30.6453C96.6969 28.2651 96.6969 25.8849 96.6969 23.5047C95.1099 23.5047 93.5234 23.5047 91.9364 23.5047C91.9364 31.8355 91.9364 40.1663 91.9364 48.4971C89.358 48.4971 86.7791 48.4971 84.2007 48.4971C84.2007 37.9844 84.2007 27.4717 84.2007 16.959Z" fill="#929292"/>
<path opacity="0.909" fill-rule="evenodd" clip-rule="evenodd" d="M108.003 16.9592C110.581 16.9592 113.16 16.9592 115.739 16.9592C115.739 27.4719 115.739 37.9846 115.739 48.4972C113.16 48.4972 110.581 48.4972 108.003 48.4972C108.003 37.9846 108.003 27.4719 108.003 16.9592Z" fill="#929292"/>
<path opacity="0.924" fill-rule="evenodd" clip-rule="evenodd" d="M122.284 16.959C128.04 16.8599 133.792 16.9591 139.541 17.2565C140.037 17.7524 140.533 18.2483 141.029 18.7442C141.325 22.1104 141.425 25.4824 141.326 28.8601C138.748 28.8601 136.169 28.8601 133.59 28.8601C133.59 27.075 133.59 25.2898 133.59 23.5046C131.805 23.5046 130.02 23.5046 128.235 23.5046C128.235 29.8519 128.235 36.1992 128.235 42.5465C130.02 42.5465 131.805 42.5465 133.59 42.5465C133.59 40.563 133.59 38.5794 133.59 36.5959C136.169 36.5959 138.748 36.5959 141.326 36.5959C141.425 39.9737 141.325 43.3457 141.029 46.7119C140.533 47.2077 140.037 47.7036 139.541 48.1995C133.789 48.5962 128.037 48.5962 122.284 48.1995C121.803 48.0165 121.407 47.7189 121.094 47.3069C120.409 37.8124 120.31 28.2915 120.797 18.7442C121.212 18.0357 121.708 17.4406 122.284 16.959Z" fill="#929292"/>
<path opacity="0.865" fill-rule="evenodd" clip-rule="evenodd" d="M28.8603 18.1492C33.6249 18.0501 38.3854 18.1493 43.1417 18.4467C43.6226 18.6297 44.0192 18.9273 44.3318 19.3393C44.918 29.0302 45.1163 38.7494 44.9269 48.4971C39.3944 48.2494 33.8405 48.1503 28.2653 48.1995C27.9678 47.902 27.6702 47.6045 27.3727 47.307C26.8942 42.121 26.9934 36.9638 27.6702 31.8355C27.9828 31.4235 28.3795 31.1259 28.8603 30.9429C32.6238 30.6457 36.3925 30.5465 40.1664 30.6454C40.1664 27.8684 40.1664 25.0915 40.1664 22.3146C37.3895 22.3146 34.6126 22.3146 31.8356 22.3146C31.8356 23.9014 31.8356 25.4882 31.8356 27.075C30.2488 27.075 28.662 27.075 27.0752 27.075C26.6983 23.8452 27.2934 20.8699 28.8603 18.1492ZM31.8356 34.8108C34.6126 34.8108 37.3895 34.8108 40.1664 34.8108C40.1664 37.786 40.1664 40.7613 40.1664 43.7366C37.3809 43.8369 34.6039 44.0353 31.8356 44.3317C31.8356 41.1581 31.8356 37.9844 31.8356 34.8108Z" fill="#929292"/>
<path opacity="0.878" fill-rule="evenodd" clip-rule="evenodd" d="M202.617 59.8033C201.03 59.8033 199.443 59.8033 197.856 59.8033C197.856 45.9187 197.856 32.034 197.856 18.1494C199.813 17.8953 201.598 18.292 203.212 19.3395C206.916 18.287 210.685 17.9895 214.518 18.4469C214.816 18.7444 215.113 19.0419 215.411 19.3395C215.808 27.8686 215.808 36.3978 215.411 44.9269C214.716 46.4146 213.625 47.5055 212.138 48.1997C209.011 48.9562 205.838 49.2537 202.617 49.0923C202.617 52.6627 202.617 56.233 202.617 59.8033ZM207.972 22.3148C208.964 22.3148 209.956 22.3148 210.948 22.3148C211.047 29.2599 210.948 36.2023 210.65 43.1417C209.953 43.9708 209.061 44.4666 207.972 44.6294C206.198 44.9257 204.413 45.0249 202.617 44.9269C202.617 37.7862 202.617 30.6456 202.617 23.5049C204.515 23.2917 206.3 22.8949 207.972 22.3148Z" fill="#929292"/>
<path opacity="0.881" fill-rule="evenodd" clip-rule="evenodd" d="M222.849 18.1492C228.01 18.0502 233.167 18.1493 238.32 18.4467C238.618 18.7442 238.915 19.0418 239.213 19.3393C240.174 28.026 240.373 36.7536 239.808 45.5218C239.645 46.6101 239.149 47.5027 238.32 48.1995C233.018 49.4545 227.762 49.3553 222.551 47.902C221.875 43.1008 221.577 38.2412 221.659 33.3231C221.758 28.8602 221.857 24.3973 221.956 19.9343C222.261 19.3235 222.559 18.7284 222.849 18.1492ZM226.419 22.3146C229.394 22.3146 232.37 22.3146 235.345 22.3146C235.345 29.852 235.345 37.3893 235.345 44.9267C232.37 44.9267 229.394 44.9267 226.419 44.9267C226.419 37.3893 226.419 29.852 226.419 22.3146Z" fill="#929292"/>
<path opacity="0.857" fill-rule="evenodd" clip-rule="evenodd" d="M246.056 18.1492C247.967 17.8588 249.653 18.2555 251.114 19.3393C254.486 18.1948 257.957 17.8972 261.528 18.4467C261.9 18.8932 262.198 19.3892 262.42 19.9343C262.717 22.903 262.817 25.8783 262.718 28.8602C261.131 28.8602 259.544 28.8602 257.957 28.8602C257.957 26.6783 257.957 24.4965 257.957 22.3146C255.608 22.425 253.327 22.8217 251.114 23.5047C250.817 32.0316 250.717 40.5607 250.817 49.0921C249.23 49.0921 247.643 49.0921 246.056 49.0921C246.056 38.7778 246.056 28.4635 246.056 18.1492Z" fill="#929292"/>
<path opacity="0.857" fill-rule="evenodd" clip-rule="evenodd" d="M284.14 18.1492C288.904 18.0501 293.665 18.1493 298.421 18.4467C298.719 18.7442 299.016 19.0417 299.314 19.3393C299.611 22.308 299.71 25.2832 299.611 28.2651C298.223 28.2651 296.834 28.2651 295.446 28.2651C295.446 26.2816 295.446 24.2981 295.446 22.3146C292.867 22.3146 290.288 22.3146 287.71 22.3146C287.612 23.9137 287.712 25.5005 288.008 27.075C291.95 30.025 295.719 33.1986 299.314 36.5959C300.21 39.7173 300.408 42.8909 299.909 46.1168C299.352 47.6651 298.262 48.5577 296.636 48.7946C292.431 49.2939 288.265 49.0956 284.14 48.1995C283.842 47.902 283.545 47.6045 283.247 47.307C282.95 44.3383 282.851 41.363 282.95 38.3811C284.537 38.3811 286.123 38.3811 287.71 38.3811C287.71 40.563 287.71 42.7448 287.71 44.9267C290.288 44.9267 292.867 44.9267 295.446 44.9267C295.544 42.9333 295.445 40.9498 295.148 38.9762C291.007 35.8274 287.039 32.4553 283.247 28.8602C282.64 25.1648 282.937 21.5945 284.14 18.1492Z" fill="#929292"/>
<path opacity="0.909" fill-rule="evenodd" clip-rule="evenodd" d="M312.703 40.7615C312.703 43.34 312.703 45.9187 312.703 48.4972C310.124 48.4972 307.545 48.4972 304.967 48.4972C304.967 45.9187 304.967 43.34 304.967 40.7615C307.545 40.7615 310.124 40.7615 312.703 40.7615Z" fill="#EA455E"/>
</g>
<defs>
<clipPath id="clip0_54_9181">
<rect width="313" height="60.1008" fill="white"/>
</clipPath>
</defs>
</svg>
